<?xml version="1.0" standalone="no"?><!DOCTYPE svg PUBLIC "-//W3C//DTD SVG 1.1//EN" "http://www.w3.org/Graphics/SVG/1.1/DTD/svg11.dtd"><svg t="1573020817365" class="icon" viewBox="0 0 1024 1024" version="1.1" xmlns="http://www.w3.org/2000/svg" p-id="12672" xmlns:xlink="http://www.w3.org/1999/xlink" width="48" height="48"><defs><style type="text/css"></style></defs><path d="M698.112 574.464l16.384 39.936a20.48 20.48 0 1 1-37.888 15.872l-18.688-44.8a72.192 72.192 0 1 0 39.936-10.496zM383.744 601.6h109.824l-54.016-129.536-55.808 129.536z" fill="#FF4D4D" p-id="12673"></path><path d="M512 0a512 512 0 1 0 512 512A512 512 0 0 0 512 0z m-67.84 689.664a123.648 123.648 0 1 1-141.824-163.84 25.6 25.6 0 0 1 10.752 51.2 72.448 72.448 0 1 0 83.2 96 25.6 25.6 0 0 1 48.128 17.92z m251.392 80.64A123.136 123.136 0 0 1 638.464 537.6l-27.648-66.56h-128l60.416 143.36a20.48 20.48 0 0 1-18.944 28.416h-171.52A20.48 20.48 0 0 1 332.8 614.4l73.472-171.52a20.48 20.48 0 0 1 14.848-12.032l-34.048-81.92h-58.624a20.48 20.48 0 1 1 0-40.96h73.472a20.48 20.48 0 0 1 18.944 12.544l45.824 109.824h128l-39.168-94.208a20.48 20.48 0 0 1 17.664-28.928h85.248l18.688-37.632a20.48 20.48 0 0 1 36.608 18.176l-25.6 48.896a20.48 20.48 0 0 1-18.432 11.264h-65.792l73.472 176.128a122.112 122.112 0 0 1 18.432-1.792 123.648 123.648 0 0 1 0 247.04z" fill="#FF4D4D" p-id="12674"></path></svg>