<?xml version="1.0" standalone="no"?><!DOCTYPE svg PUBLIC "-//W3C//DTD SVG 1.1//EN" "http://www.w3.org/Graphics/SVG/1.1/DTD/svg11.dtd"><svg t="1573020797759" class="icon" viewBox="0 0 1024 1024" version="1.1" xmlns="http://www.w3.org/2000/svg" p-id="11855" xmlns:xlink="http://www.w3.org/1999/xlink" width="48" height="48"><defs><style type="text/css"></style></defs><path d="M512 512m-512 0a512 512 0 1 0 1024 0 512 512 0 1 0-1024 0Z" fill="#23C4FF" p-id="11856"></path><path d="M438.852267 394.9568h156.8768L639.658667 321.877333h-30.1056a24.3712 24.3712 0 1 1 0-48.776533H682.666667a24.3712 24.3712 0 0 1 20.923733 36.932267l-66.628267 111.0016 34.030934 75.844266a150.289067 150.289067 0 0 1 36.0448-4.334933A145.1008 145.1008 0 0 1 853.333333 638.7712 145.1008 145.1008 0 0 1 707.037867 785.066667a145.1008 145.1008 0 0 1-146.261334-146.295467c0-51.677867 25.8048-96.529067 65.501867-122.4704l-19.217067-42.837333-86.016 152.8832a24.3712 24.3712 0 0 1-21.230933 12.424533H463.189333A145.1008 145.1008 0 0 1 316.962133 785.066667 145.1008 145.1008 0 0 1 170.666667 638.7712a145.1008 145.1008 0 0 1 146.295466-146.261333c10.990933 0 21.7088 1.160533 31.982934 3.413333l41.1648-82.3296v-67.3792h-24.405334a24.3712 24.3712 0 1 1 0-48.776533h97.518934a24.3712 24.3712 0 0 1 0 48.776533h-24.3712v48.7424zM429.533867 443.733333l-35.191467 70.417067a144.349867 144.349867 0 0 1 60.791467 75.8784h30.4128L567.808 443.733333h-138.274133z m261.905066 98.7136l35.4304 79.0528a24.3712 24.3712 0 1 1-44.509866 19.933867l-35.771734-79.803733a96.768 96.768 0 0 0-37.0688 77.141333 96.324267 96.324267 0 0 0 97.518934 97.518933 96.324267 96.324267 0 0 0 97.518933-97.518933 96.324267 96.324267 0 0 0-97.518933-97.518933 102.741333 102.741333 0 0 0-15.598934 1.194666z m-289.553066 47.581867a95.232 95.232 0 0 0-29.4912-32.017067l-16.008534 32.017067h45.499734z m-75.810134-48.366933a103.8336 103.8336 0 0 0-9.1136-0.4096 96.324267 96.324267 0 0 0-97.518933 97.518933 96.324267 96.324267 0 0 0 97.518933 97.518933 96.324267 96.324267 0 0 0 97.518934-97.518933H316.962133a24.3712 24.3712 0 0 1-21.8112-35.259733l30.9248-61.8496z" fill="#000000" p-id="11857"></path></svg>